HIERARCHY
ROOT Hips
{
 OFFSET 0.000000 0.000000 0.000000
 CHANNELS 6 Xposition Yposition Zposition Yrotation Xrotation Zrotation
 JOINT Chest
 {
  OFFSET 0.000000 9.588913 -0.003946
  CHANNELS 3 Yrotation Xrotation Zrotation
  JOINT Chest2
  {
   OFFSET 0.000000 9.541882 0.008053
   CHANNELS 3 Yrotation Xrotation Zrotation
   JOINT Chest3
   {
    OFFSET 0.000000 9.501360 0.000000
    CHANNELS 3 Yrotation Xrotation Zrotation
    JOINT Chest4
    {
     OFFSET 0.000000 9.491660 0.000000
     CHANNELS 3 Yrotation Xrotation Zrotation
     JOINT Neck
     {
      OFFSET 0.000000 14.331917 0.000000
      CHANNELS 3 Yrotation Xrotation Zrotation
      JOINT Head
      {
       OFFSET 0.000000 8.884799 0.017034
       CHANNELS 3 Yrotation Xrotation Zrotation
       End Site
       {
        OFFSET 0.000000 16.896195 0.008993
       }
      }
     }
     JOINT RightCollar
     {
      OFFSET -2.923010 9.499495 0.000000
      CHANNELS 3 Yrotation Xrotation Zrotation
      JOINT RightShoulder
      {
       OFFSET -13.795216 0.000000 0.000000
       CHANNELS 3 Yrotation Xrotation Zrotation
       JOINT RightElbow
       {
        OFFSET -30.272209 0.000000 0.000000
        CHANNELS 3 Yrotation Xrotation Zrotation
        JOINT RightWrist
        {
         OFFSET -24.478199 0.000000 0.000000
         CHANNELS 3 Yrotation Xrotation Zrotation
         End Site
         {
          OFFSET -18.090752 0.000000 0.000000
         }
        }
       }
      }
     }
     JOINT LeftCollar
     {
      OFFSET 2.923010 9.499495 0.000000
      CHANNELS 3 Yrotation Xrotation Zrotation
      JOINT LeftShoulder
      {
       OFFSET 13.795216 0.000000 0.000000
       CHANNELS 3 Yrotation Xrotation Zrotation
       JOINT LeftElbow
       {
        OFFSET 30.272209 0.000000 0.000000
        CHANNELS 3 Yrotation Xrotation Zrotation
        JOINT LeftWrist
        {
         OFFSET 24.478199 0.000000 0.000000
         CHANNELS 3 Yrotation Xrotation Zrotation
         End Site
         {
          OFFSET 18.090752 0.000000 0.000000
         }
        }
       }
      }
     }
    }
   }
  }
 }
 JOINT RightHip
 {
  OFFSET -7.826875 0.019532 0.001973
  CHANNELS 3 Yrotation Xrotation Zrotation
  JOINT RightKnee
  {
   OFFSET 0.000000 -40.546152 -0.001885
   CHANNELS 3 Yrotation Xrotation Zrotation
   JOINT RightAnkle
   {
    OFFSET 0.000000 -39.417092 -0.003189
    CHANNELS 3 Yrotation Xrotation Zrotation
    JOINT RightToe
    {
     OFFSET 0.000000 -7.579396 17.243563
     CHANNELS 3 Yrotation Xrotation Zrotation
     End Site
     {
      OFFSET 0.000000 -1.500329 6.694466
     }
    }
   }
  }
 }
 JOINT LeftHip
 {
  OFFSET 7.826875 0.019532 0.001973
  CHANNELS 3 Yrotation Xrotation Zrotation
  JOINT LeftKnee
  {
   OFFSET 0.000000 -40.546152 -0.001885
   CHANNELS 3 Yrotation Xrotation Zrotation
   JOINT LeftAnkle
   {
    OFFSET 0.000000 -39.417092 -0.003189
    CHANNELS 3 Yrotation Xrotation Zrotation
    JOINT LeftToe
    {
     OFFSET 0.000000 -7.579396 17.243563
     CHANNELS 3 Yrotation Xrotation Zrotation
     End Site
     {
      OFFSET 0.000000 -1.500329 6.694466
     }
    }
   }
  }
 }
}
MOTION
Frames: 9
Frame Time: 0.008333
15.461786 28.378097 13.473963 -46.328318 -32.319519 2.664865 22.657954 17.709747 13.784196 12.586256 11.730963 5.476436 15.989797 14.448105 7.284926 12.586256 11.730963 5.476436 10.632669 2.684441 -11.495606 16.845600 -23.051912 -17.687729 19.690990 -5.209813 -16.254807 -3.496657 -36.001809 71.416932 105.182364 2.185171 8.982675 23.236175 -3.204207 -11.401990 16.234243 2.986681 0.566413 2.828572 -19.649910 -97.991050 -122.009905 -27.887701 -22.843303 -37.303995 23.869533 28.453184 -1.428183 -30.778960 41.443396 -155.843821 20.061709 178.193442 -21.730919 -54.102363 30.976720 0.150148 -29.993193 -1.660802 24.942545 -63.404551 54.387578 167.771039 14.670861 -161.996258 -18.009043 -38.517819 -3.329451 -8.078236 -39.806002 21.001699
15.465751 28.379943 13.475934 -46.339953 -32.310462 2.659716 22.652543 17.708266 13.789567 12.580733 11.730652 5.473650 15.982767 14.447919 7.281247 12.580733 11.730652 5.473650 10.641480 2.708611 -11.518316 16.861610 -23.021105 -17.717334 19.679134 -5.179560 -16.241825 -3.420707 -36.071216 71.456775 105.133721 2.174856 8.994255 23.242584 -3.206412 -11.428111 16.254120 2.991888 0.559235 2.843515 -19.649040 -97.993535 -121.986111 -27.905156 -22.857205 -37.405470 23.865505 28.449682 -1.424380 -30.776903 41.444946 -155.835027 20.064902 178.191533 -21.714338 -54.114218 30.951027 0.148948 -29.994715 -1.650192 24.975094 -63.406028 54.357036 167.762965 14.670892 -162.001658 -18.011411 -38.526088 -3.324485 -8.077530 -39.819250 21.001417
15.468347 28.381968 13.477509 -46.349430 -32.302305 2.648696 22.645686 17.704942 13.800092 12.574947 11.730786 5.472004 15.975455 14.448253 7.279010 12.574947 11.730786 5.472004 10.651131 2.739613 -11.548925 16.880488 -22.981595 -17.756707 19.679441 -5.152221 -16.216226 -3.352301 -36.136805 71.491094 105.091871 2.160505 9.018581 23.230602 -3.196510 -11.449846 16.268165 3.003854 0.547452 2.865663 -19.656021 -97.993849 -121.963079 -27.930584 -22.871080 -37.496220 23.857106 28.452706 -1.425334 -30.775867 41.453915 -155.826613 20.069725 178.196765 -21.719419 -54.117991 30.953051 0.145786 -29.993167 -1.640807 24.995253 -63.410856 54.340569 167.749903 14.670268 -162.008074 -18.008880 -38.536720 -3.331104 -8.076791 -39.832617 21.001083
15.457759 28.382189 13.464195 -46.310453 -32.283773 2.495393 22.627299 17.644401 13.916603 12.569651 11.731757 5.471674 15.968824 14.449575 7.278474 12.569651 11.731757 5.471674 10.661682 2.777292 -11.586408 16.901953 -22.933616 -17.804504 19.689669 -5.125270 -16.185123 -3.302834 -36.201999 71.531585 105.059070 2.143501 9.057823 23.198403 -3.173577 -11.461495 16.276918 3.020734 0.530763 2.885905 -19.672147 -97.988860 -121.945224 -27.953690 -22.880056 -37.568755 23.848610 28.472332 -1.541898 -30.794042 41.617193 -155.822380 20.111273 178.214796 -21.724430 -54.127654 30.957683 0.125017 -29.937086 -1.645060 24.774837 -63.476549 54.547513 167.734800 14.671915 -162.013921 -17.978404 -38.614025 -3.348366 -8.080067 -39.777835 20.977192
15.459348 28.384749 13.467212 -46.333487 -32.281207 2.498316 22.622716 17.648649 13.918394 12.565491 11.733077 5.471755 15.963643 14.451295 7.278505 12.565491 11.733077 5.471756 10.671488 2.820410 -11.627935 16.922921 -22.878905 -17.856471 19.702198 -5.100159 -16.155764 -3.273099 -36.265664 71.586672 105.037648 2.119593 9.105399 23.148041 -3.139914 -11.460737 16.282925 3.037851 0.513624 2.899249 -19.694205 -97.978777 -121.932368 -27.972690 -22.880180 -37.632396 23.842830 28.502765 -1.523010 -30.792704 41.617867 -155.827109 20.113322 178.219130 -21.750232 -54.123182 30.981143 0.123723 -29.938943 -1.639472 24.816155 -63.473312 54.518401 167.720580 14.676136 -162.017308 -17.978867 -38.617373 -3.350240 -8.081197 -39.793110 20.975787
15.460590 28.387012 13.469817 -46.359989 -32.276806 2.501647 22.619271 17.651983 13.919943 12.562574 11.734233 5.471910 15.960020 14.452786 7.278658 12.562574 11.734234 5.471910 10.677409 2.868082 -11.670849 16.938277 -22.818865 -17.907939 19.712147 -5.076958 -16.132658 -3.258626 -36.325811 71.654849 105.023657 2.088993 9.150558 23.089625 -3.103465 -11.446601 16.289907 3.052687 0.498690 2.900549 -19.715974 -97.966084 -121.920570 -27.987393 -22.872576 -37.698517 23.836889 28.536390 -1.503275 -30.795204 41.620632 -155.834179 20.114891 178.221413 -21.772455 -54.118427 31.000657 0.122150 -29.940917 -1.635209 24.860762 -63.473312 54.485833 167.706263 14.679021 -162.019615 -17.974582 -38.619686 -3.354608 -8.084012 -39.809755 20.974228
15.461872 28.388980 13.472108 -46.387539 -32.270336 2.505955 22.616290 17.652844 13.922334 12.560493 11.735428 5.472919 15.957475 14.454278 7.279912 12.560493 11.735428 5.472919 10.676211 2.919625 -11.713326 16.943062 -22.754618 -17.955296 19.715633 -5.050215 -16.118907 -3.254865 -36.388460 71.737424 105.009632 2.059674 9.188560 23.032458 -3.069548 -11.418093 16.301560 3.064149 0.488303 2.882398 -19.729642 -97.956409 -121.904267 -27.995201 -22.862290 -37.777899 23.828294 28.572223 -1.485884 -30.801480 41.622012 -155.841836 20.115483 178.220182 -21.777207 -54.116122 30.997907 0.120689 -29.944872 -1.629531 24.909559 -63.478239 54.445690 167.690638 14.680259 -162.023248 -17.960338 -38.617846 -3.367791 -8.089981 -39.830118 20.973384
15.463302 28.391199 13.474970 -46.417834 -32.266448 2.516569 22.615725 17.655179 13.925222 12.558936 11.737213 5.475117 15.955643 14.456455 7.282698 12.558937 11.737213 5.475117 10.666547 2.973990 -11.753780 16.935053 -22.687610 -17.996064 19.710576 -5.019435 -16.113091 -3.255654 -36.456127 71.834991 104.991018 2.040341 9.221743 22.985550 -3.038140 -11.381772 16.314648 3.070602 0.484257 2.846800 -19.730124 -97.956056 -121.880078 -27.995149 -22.853921 -37.877985 23.822624 28.606308 -1.467049 -30.805180 41.616514 -155.851109 20.114638 178.217108 -21.775652 -54.114089 30.984088 0.120503 -29.951610 -1.623340 24.963583 -63.481361 54.400756 167.676679 14.682959 -162.026061 -17.943681 -38.607972 -3.386368 -8.096849 -39.854549 20.976031
15.464192 28.393826 13.477715 -46.450052 -32.265506 2.527669 22.617540 17.658051 13.931573 12.557985 11.739375 5.477880 15.954599 14.459071 7.286229 12.557985 11.739375 5.477880 10.650334 3.029295 -11.790349 16.916509 -22.620110 -18.028815 19.710269 -4.987572 -16.105834 -3.260959 -36.522970 71.932227 104.969081 2.036485 9.249448 22.956129 -3.013395 -11.347995 16.327425 3.072862 0.483451 2.802973 -19.721799 -97.963674 -121.848319 -27.987480 -22.851056 -37.992119 23.825264 28.635981 -1.451619 -30.804695 41.613987 -155.860783 20.114317 178.215597 -21.782893 -54.108637 30.976544 0.120160 -29.957514 -1.617544 25.010240 -63.482519 54.366393 167.666157 14.686644 -162.025357 -17.931189 -38.595322 -3.403341 -8.104078 -39.878926 20.982424
